<svg width="3009" height="745" viewBox="0 0 3009 745" fill="none" xmlns="http://www.w3.org/2000/svg">
<path d="M304.204 0.269157C305.786 0.132157 307.372 0.0461628 308.96 0.0091628C332.039 -0.456837 353.77 16.9552 373.21 28.6632L450.483 75.2352L549.174 134.513C554.028 137.454 559.234 140.624 563.983 143.495C595.603 162.615 618.257 171.803 617.558 213.659C617.2 235.076 617.247 259.479 617.2 281.367L617.125 427.82L617.352 498.163C617.545 541.243 620.425 564.22 577.591 586.987C567.092 592.568 551.599 603.141 541.046 609.695L420.681 684.702C404.264 694.84 387.915 705.086 371.634 715.441C352.113 727.947 328.222 746.811 304.64 744.484C284.841 742.53 256.655 721.733 239.4 711.096L165.789 666.086C152.865 658.134 92.5444 621.902 85.8574 615.212C86.4284 579.684 86.0554 543.919 86.8804 508.471C94.0424 513.756 107.482 521.088 115.49 525.964L177.856 563.945L264.685 617.38C277.413 625.16 296.691 637.824 309.452 644.185C321.45 637.748 342.321 623.993 354.458 616.397L439.365 563.028L493.818 528.982C503.309 523.046 518.271 514.156 526.58 507.315C527.858 475.524 526.659 436.13 526.641 403.688L526.82 230.631L381.275 142.001C360.949 129.84 328.244 111.555 310.271 98.5802C251.191 133.732 192.287 169.18 133.564 204.924C119.406 213.57 103.431 222.047 89.9044 230.667C90.6854 254.65 87.6514 310.144 91.6154 330.179C93.4584 339.914 97.2844 349.167 102.854 357.362C121.581 384.889 155.867 398.214 188.221 387.715C199.338 383.338 211.294 376.833 221.223 370.255C250.737 350.701 285.035 334.208 313.635 313.898C298.472 306.065 281.511 295.437 266.747 286.551C255.192 279.597 232.908 267.097 223.06 258.606C227.716 255.982 232.811 252.852 237.304 249.953C261.285 234.482 287.294 221.463 311.104 205.836C322 213.62 338.325 222.601 350.149 229.726C380.888 248.249 411.702 265.34 442.193 284.364C443.28 301.985 442.636 324.866 442.625 342.873L442.417 445.42C437.364 449.072 432.062 452.719 426.712 455.905C402.623 470.253 378.757 486.913 354.215 500.307L354.212 435.617C354.199 423.704 353.53 408.234 354.96 396.837C331.938 411.753 305.43 426.584 281.899 441.058C266.097 450.777 242.548 465.992 226.318 472.982C213.573 478.525 200.107 482.237 186.322 484.008C144.659 489.93 102.358 478.936 68.8504 453.478C7.29743 406.753 -3.05957 346.684 0.763431 273.346C2.24143 244.994 -6.17257 197.041 11.2414 174.738C14.9034 169.975 19.2984 165.823 24.2634 162.44C35.6804 154.55 53.3944 144.551 65.6044 137.192L150.227 86.4352C180.378 67.9422 210.711 49.7452 241.22 31.8492C256.368 22.8172 271.666 13.2582 287.061 4.68716C292.605 1.60216 297.945 1.05516 304.204 0.269157Z" fill="#3B82F6"/>
<path d="M784.007 488.34L866.188 239.41H956.553L1041.8 488.34H983.833L914.951 277.943L932.683 285.104H888.694L907.108 277.943L839.931 488.34H784.007ZM846.41 426.619L863.46 380.243H960.986L978.377 426.619H846.41ZM1177.85 494.819C1155.35 494.819 1136.02 490.955 1119.88 483.225C1103.74 475.269 1090.56 464.925 1080.33 452.194C1070.1 439.236 1062.48 425.369 1057.48 410.592C1052.71 395.588 1050.32 381.039 1050.32 366.944V359.442C1050.32 343.984 1052.82 328.752 1057.82 313.748C1062.82 298.517 1070.44 284.763 1080.67 272.487C1091.13 260.211 1104.2 250.436 1119.88 243.161C1135.8 235.659 1154.55 231.908 1176.15 231.908C1198.66 231.908 1218.55 236.114 1235.82 244.525C1253.1 252.937 1266.86 264.644 1277.09 279.648C1287.54 294.425 1293.68 311.816 1295.5 331.821H1239.23C1237.64 321.819 1234.01 313.294 1228.32 306.246C1222.64 299.199 1215.25 293.743 1206.16 289.878C1197.29 286.014 1187.29 284.081 1176.15 284.081C1165.01 284.081 1155.12 286.014 1146.48 289.878C1137.84 293.743 1130.57 299.199 1124.66 306.246C1118.97 313.294 1114.54 321.705 1111.36 331.48C1108.4 341.028 1106.93 351.713 1106.93 363.534C1106.93 375.128 1108.4 385.813 1111.36 395.588C1114.54 405.136 1119.09 413.548 1125 420.822C1131.14 427.87 1138.64 433.326 1147.51 437.19C1156.37 440.828 1166.49 442.646 1177.85 442.646C1195.13 442.646 1209.68 438.441 1221.5 430.029C1233.55 421.618 1240.83 410.024 1243.33 395.247H1299.25C1297.2 413.434 1291.07 430.143 1280.84 445.374C1270.83 460.378 1257.08 472.427 1239.58 481.52C1222.3 490.386 1201.72 494.819 1177.85 494.819ZM1522.18 494.819C1499.68 494.819 1480.35 490.955 1464.21 483.225C1448.07 475.269 1434.89 464.925 1424.66 452.194C1414.43 439.236 1406.81 425.369 1401.81 410.592C1397.04 395.588 1394.65 381.039 1394.65 366.944V359.442C1394.65 343.984 1397.15 328.752 1402.15 313.748C1407.15 298.517 1414.77 284.763 1425 272.487C1435.46 260.211 1448.53 250.436 1464.21 243.161C1480.13 235.659 1498.88 231.908 1520.48 231.908C1542.99 231.908 1562.88 236.114 1580.15 244.525C1597.43 252.937 1611.19 264.644 1621.42 279.648C1631.87 294.425 1638.01 311.816 1639.83 331.821H1583.56C1581.97 321.819 1578.34 313.294 1572.65 306.246C1566.97 299.199 1559.58 293.743 1550.49 289.878C1541.62 286.014 1531.62 284.081 1520.48 284.081C1509.34 284.081 1499.45 286.014 1490.81 289.878C1482.17 293.743 1474.9 299.199 1468.99 306.246C1463.3 313.294 1458.87 321.705 1455.69 331.48C1452.73 341.028 1451.26 351.713 1451.26 363.534C1451.26 375.128 1452.73 385.813 1455.69 395.588C1458.87 405.136 1463.42 413.548 1469.33 420.822C1475.47 427.87 1482.97 433.326 1491.84 437.19C1500.7 440.828 1510.82 442.646 1522.18 442.646C1539.46 442.646 1554.01 438.441 1565.83 430.029C1577.88 421.618 1585.16 410.024 1587.66 395.247H1643.58C1641.53 413.434 1635.4 430.143 1625.17 445.374C1615.16 460.378 1601.41 472.427 1583.91 481.52C1566.63 490.386 1546.05 494.819 1522.18 494.819ZM1768.66 494.819C1752.29 494.819 1737.74 492.319 1725.01 487.317C1712.28 482.089 1701.48 475.041 1692.62 466.175C1683.98 457.309 1677.39 447.193 1672.84 435.826C1668.29 424.232 1666.02 412.07 1666.02 399.339V391.496C1666.02 378.538 1668.29 366.262 1672.84 354.668C1677.61 342.847 1684.43 332.503 1693.3 323.637C1702.39 314.771 1713.31 307.838 1726.04 302.836C1738.77 297.608 1752.97 294.993 1768.66 294.993C1784.8 294.993 1799.12 297.608 1811.63 302.836C1824.36 307.838 1835.16 314.771 1844.02 323.637C1852.89 332.503 1859.71 342.847 1864.48 354.668C1869.26 366.262 1871.64 378.538 1871.64 391.496V399.339C1871.64 412.07 1869.37 424.232 1864.82 435.826C1860.28 447.193 1853.57 457.309 1844.7 466.175C1836.07 475.041 1825.38 482.089 1812.65 487.317C1799.92 492.319 1785.26 494.819 1768.66 494.819ZM1768.66 448.784C1779.35 448.784 1788.21 446.511 1795.26 441.964C1802.31 437.418 1807.65 431.052 1811.29 422.868C1815.15 414.684 1817.08 405.591 1817.08 395.588C1817.08 384.904 1815.15 375.583 1811.29 367.626C1807.42 359.442 1801.85 352.963 1794.58 348.189C1787.53 343.415 1778.89 341.028 1768.66 341.028C1758.66 341.028 1750.02 343.415 1742.74 348.189C1735.47 352.963 1729.9 359.442 1726.04 367.626C1722.4 375.583 1720.58 384.904 1720.58 395.588C1720.58 405.591 1722.4 414.684 1726.04 422.868C1729.67 431.052 1735.13 437.418 1742.4 441.964C1749.68 446.511 1758.43 448.784 1768.66 448.784ZM1972.81 494.137C1951.21 494.137 1934.61 487.204 1923.02 473.336C1911.43 459.242 1905.63 438.1 1905.63 409.91V301.472H1960.19V412.638C1960.19 422.641 1963.03 430.598 1968.71 436.508C1974.4 442.419 1982.01 445.374 1991.56 445.374C2001.34 445.374 2009.29 442.305 2015.43 436.167C2021.57 430.029 2024.64 421.732 2024.64 411.274V301.472H2079.2V488.34H2035.89V409.569H2039.64C2039.64 428.438 2037.14 444.238 2032.14 456.968C2027.37 469.472 2020.2 478.792 2010.66 484.93C2001.11 491.068 1989.29 494.137 1975.19 494.137H1972.81ZM2129.51 488.34V301.472H2172.81V381.607H2171.79C2171.79 355.237 2177.36 334.89 2188.5 320.568C2199.86 306.246 2216.23 299.085 2237.6 299.085H2244.76V346.143H2231.12C2216.12 346.143 2204.53 350.235 2196.34 358.419C2188.16 366.376 2184.07 377.97 2184.07 393.201V488.34H2129.51ZM2343.96 494.137C2317.36 494.137 2296.56 488.681 2281.56 477.769C2266.55 466.857 2258.6 451.512 2257.69 431.734H2306.11C2307.02 437.645 2310.54 442.987 2316.68 447.761C2323.05 452.308 2332.48 454.581 2344.98 454.581C2354.53 454.581 2362.37 452.99 2368.51 449.807C2374.88 446.397 2378.06 441.623 2378.06 435.485C2378.06 430.029 2375.67 425.71 2370.9 422.527C2366.12 419.117 2357.6 416.73 2345.32 415.366L2330.66 414.002C2308.15 411.729 2291.22 405.477 2279.85 395.247C2268.71 385.017 2263.14 371.946 2263.14 356.032C2263.14 342.847 2266.44 331.821 2273.03 322.955C2279.62 314.089 2288.72 307.383 2300.31 302.836C2312.13 298.29 2325.55 296.016 2340.55 296.016C2364.65 296.016 2384.08 301.359 2398.86 312.043C2413.64 322.501 2421.37 337.732 2422.05 357.737H2373.63C2372.72 351.599 2369.53 346.484 2364.08 342.392C2358.62 338.073 2350.55 335.913 2339.87 335.913C2331.46 335.913 2324.75 337.505 2319.75 340.687C2314.75 343.87 2312.25 348.189 2312.25 353.645C2312.25 358.874 2314.41 362.852 2318.73 365.58C2323.05 368.308 2330.09 370.241 2339.87 371.377L2354.53 372.741C2377.49 375.242 2395.34 381.607 2408.07 391.837C2420.8 402.067 2427.16 415.821 2427.16 433.098C2427.16 445.602 2423.75 456.514 2416.93 465.834C2410.11 474.928 2400.45 481.975 2387.95 486.976C2375.45 491.75 2360.78 494.137 2343.96 494.137ZM2471.38 488.34V301.472H2525.94V488.34H2471.38ZM2446.49 341.71V301.472H2525.94V341.71H2446.49ZM2492.52 283.058C2482.29 283.058 2474.68 280.444 2469.67 275.215C2464.9 269.759 2462.51 262.939 2462.51 254.755C2462.51 246.344 2464.9 239.524 2469.67 234.295C2474.68 228.839 2482.29 226.111 2492.52 226.111C2502.75 226.111 2510.25 228.839 2515.03 234.295C2520.03 239.524 2522.53 246.344 2522.53 254.755C2522.53 262.939 2520.03 269.759 2515.03 275.215C2510.25 280.444 2502.75 283.058 2492.52 283.058ZM2576.4 488.34V301.472H2619.71V381.607H2616.64C2616.64 362.511 2619.03 346.598 2623.8 333.867C2628.8 321.137 2636.3 311.589 2646.31 305.223C2656.31 298.858 2668.47 295.675 2682.79 295.675H2685.18C2707 295.675 2723.6 302.836 2734.97 317.158C2746.56 331.253 2752.36 352.736 2752.36 381.607V488.34H2697.8V378.538C2697.8 368.536 2694.84 360.352 2688.93 353.986C2683.02 347.621 2675.06 344.438 2665.06 344.438C2654.83 344.438 2646.53 347.735 2640.17 354.327C2634.03 360.693 2630.96 369.104 2630.96 379.561V488.34H2576.4ZM2872.51 562.678C2863.41 562.678 2854.09 562.337 2844.55 561.655C2835 560.973 2826.24 560.064 2818.29 558.927V512.892C2826.24 514.029 2835 514.938 2844.55 515.62C2854.32 516.53 2863.19 516.984 2871.14 516.984C2885.92 516.984 2897.85 515.279 2906.95 511.869C2916.27 508.459 2923.09 503.231 2927.41 496.183C2931.73 489.363 2933.89 480.497 2933.89 469.585V432.416L2943.78 410.592C2943.32 427.188 2940.03 441.396 2933.89 453.217C2927.98 465.039 2919.68 474.132 2908.99 480.497C2898.31 486.635 2885.58 489.704 2870.8 489.704C2858.07 489.704 2846.48 487.431 2836.02 482.884C2825.79 478.11 2817.04 471.518 2809.76 463.106C2802.49 454.695 2796.92 444.92 2793.05 433.78C2789.19 422.414 2787.26 410.138 2787.26 396.952V389.109C2787.26 375.924 2789.3 363.648 2793.4 352.281C2797.49 340.915 2803.4 331.026 2811.13 322.614C2818.86 314.203 2828.06 307.724 2838.75 303.177C2849.43 298.403 2861.25 296.016 2874.21 296.016C2889.22 296.016 2902.17 299.313 2913.09 305.905C2924.23 312.498 2932.98 322.16 2939.34 334.89C2945.71 347.621 2949.12 362.966 2949.57 380.925L2942.07 382.971V301.472H2985.38V466.175C2985.38 489.136 2981.29 507.664 2973.1 521.758C2964.92 535.853 2952.41 546.197 2935.59 552.789C2919 559.382 2897.97 562.678 2872.51 562.678ZM2887.85 443.669C2896.26 443.669 2903.88 441.851 2910.7 438.213C2917.52 434.349 2922.86 428.893 2926.73 421.845C2930.82 414.798 2932.86 406.273 2932.86 396.27V386.381C2932.86 376.606 2930.7 368.422 2926.39 361.829C2922.29 355.009 2916.84 349.894 2910.02 346.484C2903.2 342.847 2895.92 341.028 2888.19 341.028C2879.1 341.028 2871.03 343.188 2863.98 347.507C2856.93 351.827 2851.48 357.851 2847.61 365.58C2843.75 373.31 2841.82 382.403 2841.82 392.86C2841.82 403.545 2843.75 412.752 2847.61 420.481C2851.71 427.983 2857.16 433.78 2863.98 437.872C2871.03 441.737 2878.99 443.669 2887.85 443.669Z" fill="#312E2E"/>
</svg>
