<svg width="2889" height="745" viewBox="0 0 2889 745" fill="none" xmlns="http://www.w3.org/2000/svg">
<path d="M304.204 0.269157C305.786 0.132157 307.372 0.0461628 308.96 0.0091628C332.039 -0.456837 353.77 16.9552 373.21 28.6632L450.483 75.2352L549.174 134.513C554.028 137.454 559.234 140.624 563.983 143.495C595.603 162.615 618.257 171.803 617.558 213.659C617.2 235.076 617.247 259.479 617.2 281.367L617.125 427.82L617.352 498.163C617.545 541.243 620.425 564.22 577.591 586.987C567.092 592.568 551.599 603.141 541.046 609.695L420.681 684.702C404.264 694.84 387.915 705.086 371.634 715.441C352.113 727.947 328.222 746.811 304.64 744.484C284.841 742.53 256.655 721.733 239.4 711.096L165.789 666.086C152.865 658.134 92.5444 621.902 85.8574 615.212C86.4284 579.684 86.0554 543.919 86.8804 508.471C94.0424 513.756 107.482 521.088 115.49 525.964L177.856 563.945L264.685 617.38C277.413 625.16 296.691 637.824 309.452 644.185C321.45 637.748 342.321 623.993 354.458 616.397L439.365 563.028L493.818 528.982C503.309 523.046 518.271 514.156 526.58 507.315C527.858 475.524 526.659 436.13 526.641 403.688L526.82 230.631L381.275 142.001C360.949 129.84 328.244 111.555 310.271 98.5802C251.191 133.732 192.287 169.18 133.564 204.924C119.406 213.57 103.431 222.047 89.9044 230.667C90.6854 254.65 87.6514 310.144 91.6154 330.179C93.4584 339.914 97.2844 349.167 102.854 357.362C121.581 384.889 155.867 398.214 188.221 387.715C199.338 383.338 211.294 376.833 221.223 370.255C250.737 350.701 285.035 334.208 313.635 313.898C298.472 306.065 281.511 295.437 266.747 286.551C255.192 279.597 232.908 267.097 223.06 258.606C227.716 255.982 232.811 252.852 237.304 249.953C261.285 234.482 287.294 221.463 311.104 205.836C322 213.62 338.325 222.601 350.149 229.726C380.888 248.249 411.702 265.34 442.193 284.364C443.28 301.985 442.636 324.866 442.625 342.873L442.417 445.42C437.364 449.072 432.062 452.719 426.712 455.905C402.623 470.253 378.757 486.913 354.215 500.307L354.212 435.617C354.199 423.704 353.53 408.234 354.96 396.837C331.938 411.753 305.43 426.584 281.899 441.058C266.097 450.777 242.548 465.992 226.318 472.982C213.573 478.525 200.107 482.237 186.322 484.008C144.659 489.93 102.358 478.936 68.8504 453.478C7.29743 406.753 -3.05957 346.684 0.763431 273.346C2.24143 244.994 -6.17257 197.041 11.2414 174.738C14.9034 169.975 19.2984 165.823 24.2634 162.44C35.6804 154.55 53.3944 144.551 65.6044 137.192L150.227 86.4352C180.378 67.9422 210.711 49.7452 241.22 31.8492C256.368 22.8172 271.666 13.2582 287.061 4.68716C292.605 1.60216 297.945 1.05516 304.204 0.269157Z" fill="#3B82F6"/>
<path d="M844.161 435.976H787.974L873.587 187.976H941.157L1026.65 435.976H970.462L908.341 244.648H906.403L844.161 435.976ZM840.649 338.496H973.368V379.425H840.649V338.496ZM1263.66 274.8H1210.62C1209.65 267.938 1207.67 261.843 1204.69 256.515C1201.7 251.106 1197.87 246.505 1193.18 242.71C1188.5 238.916 1183.09 236.01 1176.96 233.992C1170.9 231.973 1164.32 230.964 1157.22 230.964C1144.38 230.964 1133.2 234.153 1123.68 240.531C1114.15 246.828 1106.76 256.031 1101.52 268.14C1096.27 280.169 1093.64 294.781 1093.64 311.976C1093.64 329.656 1096.27 344.51 1101.52 356.539C1106.84 368.567 1114.27 377.649 1123.8 383.785C1133.32 389.92 1144.34 392.988 1156.86 392.988C1163.88 392.988 1170.38 392.059 1176.35 390.203C1182.41 388.346 1187.77 385.641 1192.46 382.089C1197.14 378.457 1201.01 374.057 1204.08 368.89C1207.23 363.723 1209.41 357.83 1210.62 351.21L1263.66 351.453C1262.29 362.835 1258.86 373.815 1253.37 384.39C1247.96 394.885 1240.65 404.29 1231.45 412.605C1222.33 420.839 1211.43 427.378 1198.75 432.222C1186.16 436.985 1171.91 439.367 1156.01 439.367C1133.89 439.367 1114.11 434.361 1096.67 424.351C1079.32 414.341 1065.59 399.85 1055.5 380.878C1045.49 361.907 1040.48 338.94 1040.48 311.976C1040.48 284.932 1045.57 261.924 1055.74 242.953C1065.91 223.981 1079.72 209.531 1097.16 199.601C1114.59 189.591 1134.21 184.585 1156.01 184.585C1170.38 184.585 1183.7 186.604 1195.97 190.64C1208.32 194.677 1219.26 200.57 1228.79 208.32C1238.31 215.989 1246.06 225.394 1252.04 236.535C1258.09 247.675 1261.96 260.43 1263.66 274.8ZM1599 274.8H1545.96C1544.99 267.938 1543.01 261.843 1540.03 256.515C1537.04 251.106 1533.2 246.505 1528.52 242.71C1523.84 238.916 1518.43 236.01 1512.3 233.992C1506.24 231.973 1499.66 230.964 1492.56 230.964C1479.72 230.964 1468.54 234.153 1459.01 240.531C1449.49 246.828 1442.1 256.031 1436.85 268.14C1431.61 280.169 1428.98 294.781 1428.98 311.976C1428.98 329.656 1431.61 344.51 1436.85 356.539C1442.18 368.567 1449.61 377.649 1459.14 383.785C1468.66 389.92 1479.68 392.988 1492.19 392.988C1499.22 392.988 1505.72 392.059 1511.69 390.203C1517.75 388.346 1523.11 385.641 1527.8 382.089C1532.48 378.457 1536.35 374.057 1539.42 368.89C1542.57 363.723 1544.75 357.83 1545.96 351.21L1599 351.453C1597.63 362.835 1594.2 373.815 1588.71 384.39C1583.3 394.885 1575.99 404.29 1566.79 412.605C1557.67 420.839 1546.77 427.378 1534.09 432.222C1521.5 436.985 1507.25 439.367 1491.35 439.367C1469.23 439.367 1449.45 434.361 1432.01 424.351C1414.65 414.341 1400.93 399.85 1390.84 380.878C1380.83 361.907 1375.82 338.94 1375.82 311.976C1375.82 284.932 1380.91 261.924 1391.08 242.953C1401.25 223.981 1415.06 209.531 1432.5 199.601C1449.93 189.591 1469.55 184.585 1491.35 184.585C1505.72 184.585 1519.04 186.604 1531.31 190.64C1543.66 194.677 1554.6 200.57 1564.12 208.32C1573.65 215.989 1581.4 225.394 1587.37 236.535C1593.43 247.675 1597.3 260.43 1599 274.8ZM1719.67 439.609C1700.86 439.609 1684.59 435.613 1670.87 427.621C1657.22 419.548 1646.69 408.326 1639.26 393.957C1631.84 379.506 1628.12 362.755 1628.12 343.703C1628.12 324.489 1631.84 307.697 1639.26 293.328C1646.69 278.877 1657.22 267.656 1670.87 259.664C1684.59 251.591 1700.86 247.554 1719.67 247.554C1738.48 247.554 1754.71 251.591 1768.35 259.664C1782.07 267.656 1792.65 278.877 1800.08 293.328C1807.5 307.697 1811.22 324.489 1811.22 343.703C1811.22 362.755 1807.5 379.506 1800.08 393.957C1792.65 408.326 1782.07 419.548 1768.35 427.621C1754.71 435.613 1738.48 439.609 1719.67 439.609ZM1719.91 399.648C1728.47 399.648 1735.61 397.226 1741.34 392.382C1747.08 387.458 1751.4 380.757 1754.3 372.281C1757.29 363.804 1758.78 354.157 1758.78 343.339C1758.78 332.522 1757.29 322.875 1754.3 314.398C1751.4 305.921 1747.08 299.221 1741.34 294.296C1735.61 289.372 1728.47 286.91 1719.91 286.91C1711.27 286.91 1704.01 289.372 1698.11 294.296C1692.3 299.221 1687.9 305.921 1684.92 314.398C1682.01 322.875 1680.56 332.522 1680.56 343.339C1680.56 354.157 1682.01 363.804 1684.92 372.281C1687.9 380.757 1692.3 387.458 1698.11 392.382C1704.01 397.226 1711.27 399.648 1719.91 399.648ZM1964.04 356.781V249.976H2015.62V435.976H1966.09V402.191H1964.16C1959.96 413.089 1952.98 421.848 1943.21 428.468C1933.52 435.088 1921.69 438.398 1907.73 438.398C1895.3 438.398 1884.36 435.572 1874.91 429.921C1865.47 424.27 1858.08 416.238 1852.75 405.824C1847.5 395.41 1844.84 382.937 1844.76 368.406V249.976H1896.34V359.203C1896.43 370.182 1899.37 378.86 1905.18 385.238C1911 391.615 1918.79 394.804 1928.56 394.804C1934.77 394.804 1940.58 393.391 1945.99 390.566C1951.4 387.66 1955.76 383.381 1959.07 377.73C1962.46 372.079 1964.12 365.096 1964.04 356.781ZM2056.88 435.976V249.976H2106.9V282.429H2108.83C2112.22 270.885 2117.92 262.166 2125.91 256.273C2133.9 250.299 2143.1 247.312 2153.52 247.312C2156.1 247.312 2158.89 247.473 2161.87 247.796C2164.86 248.119 2167.48 248.563 2169.74 249.128V294.902C2167.32 294.175 2163.97 293.529 2159.69 292.964C2155.41 292.399 2151.5 292.117 2147.95 292.117C2140.36 292.117 2133.58 293.772 2127.6 297.082C2121.71 300.311 2117.03 304.832 2113.56 310.644C2110.17 316.457 2108.47 323.157 2108.47 330.746V435.976H2056.88ZM2351.17 303.015L2303.95 305.921C2303.14 301.885 2301.4 298.252 2298.74 295.023C2296.08 291.713 2292.56 289.089 2288.2 287.152C2283.93 285.134 2278.8 284.125 2272.83 284.125C2264.83 284.125 2258.09 285.82 2252.6 289.21C2247.11 292.52 2244.37 296.96 2244.37 302.531C2244.37 306.971 2246.14 310.725 2249.7 313.792C2253.25 316.86 2259.34 319.322 2267.98 321.179L2301.65 327.96C2319.73 331.674 2333.21 337.648 2342.09 345.882C2350.97 354.117 2355.41 364.934 2355.41 378.335C2355.41 390.526 2351.82 401.222 2344.63 410.425C2337.53 419.628 2327.76 426.813 2315.33 431.98C2302.98 437.066 2288.73 439.609 2272.58 439.609C2247.96 439.609 2228.34 434.483 2213.73 424.23C2199.2 413.897 2190.68 399.85 2188.18 382.089L2238.92 379.425C2240.45 386.933 2244.17 392.665 2250.06 396.621C2255.95 400.496 2263.5 402.433 2272.7 402.433C2281.75 402.433 2289.01 400.697 2294.5 397.226C2300.07 393.674 2302.9 389.113 2302.98 383.542C2302.9 378.86 2300.92 375.026 2297.04 372.039C2293.17 368.971 2287.19 366.63 2279.12 365.015L2246.91 358.597C2228.75 354.964 2215.22 348.667 2206.34 339.707C2197.55 330.746 2193.15 319.322 2193.15 305.437C2193.15 293.489 2196.37 283.196 2202.83 274.558C2209.37 265.92 2218.53 259.26 2230.32 254.578C2242.19 249.895 2256.07 247.554 2271.98 247.554C2295.47 247.554 2313.96 252.519 2327.44 262.449C2341 272.378 2348.91 285.901 2351.17 303.015ZM2387.89 435.976V249.976H2439.48V435.976H2387.89ZM2413.81 226C2406.14 226 2399.56 223.457 2394.07 218.371C2388.66 213.204 2385.96 207.028 2385.96 199.843C2385.96 192.739 2388.66 186.644 2394.07 181.558C2399.56 176.391 2406.14 173.808 2413.81 173.808C2421.48 173.808 2428.02 176.391 2433.43 181.558C2438.92 186.644 2441.66 192.739 2441.66 199.843C2441.66 207.028 2438.92 213.204 2433.43 218.371C2428.02 223.457 2421.48 226 2413.81 226ZM2532.39 328.445V435.976H2480.8V249.976H2529.97V282.792H2532.15C2536.26 271.975 2543.17 263.417 2552.85 257.121C2562.54 250.743 2574.29 247.554 2588.09 247.554C2601.01 247.554 2612.27 250.38 2621.88 256.031C2631.48 261.682 2638.95 269.755 2644.28 280.25C2649.61 290.664 2652.27 303.096 2652.27 317.546V435.976H2600.69V326.75C2600.77 315.367 2597.86 306.486 2591.97 300.109C2586.07 293.651 2577.96 290.421 2567.63 290.421C2560.69 290.421 2554.55 291.915 2549.22 294.902C2543.97 297.889 2539.86 302.248 2536.87 307.98C2533.96 313.631 2532.47 320.453 2532.39 328.445ZM2776.73 509.601C2760.02 509.601 2745.69 507.3 2733.74 502.699C2721.87 498.178 2712.43 492.002 2705.4 484.171C2698.38 476.341 2693.82 467.541 2691.72 457.773L2739.43 451.355C2740.88 455.069 2743.18 458.54 2746.33 461.769C2749.48 464.998 2753.64 467.582 2758.8 469.519C2764.05 471.537 2770.43 472.546 2777.94 472.546C2789.16 472.546 2798.4 469.802 2805.67 464.312C2813.01 458.903 2816.69 449.821 2816.69 437.066V403.039H2814.51C2812.25 408.205 2808.86 413.089 2804.34 417.691C2799.82 422.292 2794 426.046 2786.9 428.953C2779.79 431.859 2771.32 433.312 2761.47 433.312C2747.5 433.312 2734.79 430.083 2723.32 423.625C2711.94 417.085 2702.86 407.115 2696.08 393.714C2689.38 380.233 2686.03 363.199 2686.03 342.613C2686.03 321.542 2689.46 303.944 2696.32 289.816C2703.18 275.688 2712.3 265.113 2723.69 258.089C2735.15 251.066 2747.7 247.554 2761.35 247.554C2771.76 247.554 2780.48 249.33 2787.5 252.882C2794.53 256.354 2800.18 260.713 2804.46 265.96C2808.82 271.127 2812.17 276.213 2814.51 281.218H2816.45V249.976H2867.67V437.792C2867.67 453.615 2863.79 466.855 2856.04 477.511C2848.29 488.167 2837.56 496.16 2823.83 501.488C2810.19 506.897 2794.49 509.601 2776.73 509.601ZM2777.82 394.562C2786.13 394.562 2793.15 392.503 2798.89 388.386C2804.7 384.188 2809.14 378.214 2812.21 370.464C2815.36 362.634 2816.93 353.269 2816.93 342.371C2816.93 331.472 2815.4 322.027 2812.33 314.035C2809.26 305.962 2804.82 299.705 2799.01 295.265C2793.2 290.825 2786.13 288.605 2777.82 288.605C2769.34 288.605 2762.2 290.906 2756.38 295.507C2750.57 300.028 2746.17 306.325 2743.18 314.398C2740.2 322.471 2738.7 331.795 2738.7 342.371C2738.7 353.108 2740.2 362.391 2743.18 370.222C2746.25 377.972 2750.65 383.986 2756.38 388.265C2762.2 392.463 2769.34 394.562 2777.82 394.562Z" fill="#F5F5F5"/>
<path d="M1089.52 561.354C1089.14 557.992 1087.58 555.388 1084.83 553.541C1082.08 551.671 1078.63 550.736 1074.46 550.736C1071.48 550.736 1068.9 551.21 1066.72 552.156C1064.54 553.08 1062.85 554.358 1061.64 555.992C1060.46 557.602 1059.86 559.436 1059.86 561.496C1059.86 563.224 1060.27 564.716 1061.07 565.97C1061.9 567.225 1062.98 568.279 1064.3 569.131C1065.65 569.96 1067.1 570.658 1068.64 571.226C1070.17 571.771 1071.65 572.22 1073.07 572.576L1080.18 574.422C1082.5 574.99 1084.88 575.76 1087.31 576.73C1089.75 577.701 1092.01 578.979 1094.1 580.566C1096.18 582.152 1097.86 584.117 1099.14 586.46C1100.44 588.804 1101.09 591.61 1101.09 594.877C1101.09 598.996 1100.03 602.654 1097.9 605.85C1095.79 609.046 1092.72 611.567 1088.7 613.414C1084.7 615.26 1079.86 616.183 1074.18 616.183C1068.73 616.183 1064.02 615.319 1060.04 613.591C1056.06 611.863 1052.95 609.413 1050.7 606.24C1048.45 603.044 1047.21 599.256 1046.97 594.877H1057.98C1058.2 597.504 1059.05 599.694 1060.54 601.446C1062.05 603.174 1063.98 604.465 1066.33 605.317C1068.7 606.146 1071.29 606.56 1074.1 606.56C1077.21 606.56 1079.96 606.075 1082.38 605.104C1084.82 604.11 1086.73 602.736 1088.13 600.985C1089.53 599.209 1090.23 597.138 1090.23 594.77C1090.23 592.616 1089.61 590.852 1088.38 589.479C1087.17 588.106 1085.53 586.969 1083.44 586.07C1081.38 585.17 1079.05 584.377 1076.45 583.691L1067.85 581.347C1062.03 579.761 1057.41 577.429 1054.01 574.351C1050.62 571.273 1048.93 567.201 1048.93 562.135C1048.93 557.945 1050.06 554.287 1052.34 551.162C1054.61 548.037 1057.69 545.611 1061.57 543.882C1065.45 542.13 1069.83 541.254 1074.71 541.254C1079.63 541.254 1083.98 542.119 1087.74 543.847C1091.53 545.575 1094.51 547.954 1096.69 550.985C1098.87 553.991 1100 557.448 1100.1 561.354H1089.52ZM1114.21 614.976V542.249H1159.8V551.695H1125.18V573.854H1157.42V583.264H1125.18V605.53H1160.23V614.976H1114.21ZM1174.46 614.976V542.249H1200.38C1206.02 542.249 1210.69 543.219 1214.41 545.161C1218.15 547.102 1220.94 549.789 1222.79 553.222C1224.64 556.631 1225.56 560.573 1225.56 565.047C1225.56 569.498 1224.63 573.416 1222.76 576.801C1220.91 580.163 1218.12 582.779 1214.37 584.649C1210.66 586.52 1205.98 587.455 1200.35 587.455H1180.71V578.009H1199.35C1202.9 578.009 1205.79 577.5 1208.02 576.482C1210.27 575.464 1211.91 573.984 1212.95 572.043C1214 570.102 1214.52 567.77 1214.52 565.047C1214.52 562.301 1213.98 559.922 1212.92 557.909C1211.88 555.897 1210.23 554.358 1207.98 553.293C1205.76 552.204 1202.83 551.659 1199.21 551.659H1185.43V614.976H1174.46ZM1210.36 582.164L1228.33 614.976H1215.83L1198.22 582.164H1210.36ZM1238.91 614.976V542.249H1284.51V551.695H1249.89V573.854H1282.13V583.264H1249.89V605.53H1284.94V614.976H1238.91ZM1310.14 542.249V614.976H1299.17V542.249H1310.14ZM1384.82 542.249V614.976H1374.73L1337.77 561.638H1337.09V614.976H1326.12V542.249H1336.28L1373.28 595.658H1373.95V542.249H1384.82Z" fill="#D2D3D5"/>
<path d="M1566.85 614.976V542.249H1592.77C1598.41 542.249 1603.08 543.219 1606.8 545.161C1610.54 547.102 1613.33 549.789 1615.18 553.222C1617.03 556.631 1617.95 560.573 1617.95 565.047C1617.95 569.498 1617.02 573.416 1615.15 576.801C1613.3 580.163 1610.51 582.779 1606.77 584.649C1603.05 586.52 1598.37 587.455 1592.74 587.455H1573.1V578.009H1591.74C1595.3 578.009 1598.18 577.5 1600.41 576.482C1602.66 575.464 1604.3 573.984 1605.34 572.043C1606.39 570.102 1606.91 567.77 1606.91 565.047C1606.91 562.301 1606.37 559.922 1605.31 557.909C1604.27 555.897 1602.62 554.358 1600.37 553.293C1598.15 552.204 1595.22 551.659 1591.6 551.659H1577.82V614.976H1566.85ZM1602.75 582.164L1620.72 614.976H1608.22L1590.61 582.164H1602.75ZM1637.45 614.976H1625.8L1651.97 542.249H1664.65L1690.82 614.976H1679.17L1658.61 555.459H1658.04L1637.45 614.976ZM1639.4 586.496H1677.18V595.729H1639.4V586.496ZM1701.32 614.976V542.249H1727.25C1732.9 542.249 1737.59 543.279 1741.31 545.338C1745.03 547.398 1747.81 550.215 1749.65 553.79C1751.5 557.341 1752.42 561.342 1752.42 565.793C1752.42 570.267 1751.49 574.292 1749.62 577.867C1747.77 581.418 1744.98 584.235 1741.24 586.318C1737.52 588.378 1732.85 589.408 1727.21 589.408H1709.38V580.104H1726.22C1729.79 580.104 1732.69 579.488 1734.92 578.257C1737.14 577.003 1738.78 575.298 1739.82 573.144C1740.86 570.989 1741.38 568.539 1741.38 565.793C1741.38 563.047 1740.86 560.608 1739.82 558.477C1738.78 556.347 1737.13 554.678 1734.88 553.47C1732.66 552.263 1729.72 551.659 1726.07 551.659H1712.3V614.976H1701.32ZM1776.26 542.249V614.976H1765.29V542.249H1776.26ZM1815.79 614.976H1792.24V542.249H1816.53C1823.66 542.249 1829.78 543.705 1834.89 546.617C1840 549.505 1843.92 553.66 1846.64 559.081C1849.39 564.479 1850.76 570.954 1850.76 578.506C1850.76 586.082 1849.38 592.592 1846.61 598.037C1843.86 603.482 1839.89 607.673 1834.68 610.608C1829.47 613.52 1823.17 614.976 1815.79 614.976ZM1803.21 605.388H1815.18C1820.72 605.388 1825.33 604.346 1829 602.263C1832.66 600.156 1835.41 597.114 1837.23 593.137C1839.06 589.136 1839.97 584.259 1839.97 578.506C1839.97 572.8 1839.06 567.959 1837.23 563.982C1835.43 560.004 1832.75 556.986 1829.17 554.926C1825.6 552.867 1821.16 551.837 1815.86 551.837H1803.21V605.388ZM1864.41 614.976V542.249H1910.01V551.695H1875.38V573.854H1907.63V583.264H1875.38V605.53H1910.43V614.976H1864.41Z" fill="#D2D3D5"/>
<path d="M2075.85 614.976V542.249H2101.77C2107.43 542.249 2112.12 543.279 2115.84 545.338C2119.55 547.398 2122.33 550.215 2124.18 553.79C2126.03 557.341 2126.95 561.342 2126.95 565.793C2126.95 570.267 2126.02 574.292 2124.15 577.867C2122.3 581.418 2119.51 584.235 2115.77 586.318C2112.05 588.378 2107.37 589.408 2101.74 589.408H2083.91V580.104H2100.74C2104.32 580.104 2107.22 579.488 2109.44 578.257C2111.67 577.003 2113.3 575.298 2114.34 573.144C2115.39 570.989 2115.91 568.539 2115.91 565.793C2115.91 563.047 2115.39 560.608 2114.34 558.477C2113.3 556.347 2111.66 554.678 2109.41 553.47C2107.18 552.263 2104.25 551.659 2100.6 551.659H2086.82V614.976H2075.85ZM2139.82 614.976V542.249H2165.74C2171.37 542.249 2176.05 543.219 2179.77 545.161C2183.51 547.102 2186.3 549.789 2188.15 553.222C2189.99 556.631 2190.92 560.573 2190.92 565.047C2190.92 569.498 2189.98 573.416 2188.11 576.801C2186.26 580.163 2183.47 582.779 2179.73 584.649C2176.01 586.52 2171.34 587.455 2165.7 587.455H2146.07V578.009H2164.71C2168.26 578.009 2171.15 577.5 2173.37 576.482C2175.62 575.464 2177.27 573.984 2178.31 572.043C2179.35 570.102 2179.87 567.77 2179.87 565.047C2179.87 562.301 2179.34 559.922 2178.27 557.909C2177.23 555.897 2175.59 554.358 2173.34 553.293C2171.11 552.204 2168.19 551.659 2164.57 551.659H2150.79V614.976H2139.82ZM2175.72 582.164L2193.69 614.976H2181.19L2163.57 582.164H2175.72ZM2267.44 578.612C2267.44 586.378 2266.02 593.054 2263.18 598.641C2260.34 604.204 2256.45 608.489 2251.5 611.496C2246.57 614.479 2240.98 615.97 2234.7 615.97C2228.4 615.97 2222.78 614.479 2217.83 611.496C2212.91 608.489 2209.03 604.192 2206.19 598.605C2203.35 593.018 2201.92 586.354 2201.92 578.612C2201.92 570.847 2203.35 564.183 2206.19 558.62C2209.03 553.032 2212.91 548.747 2217.83 545.764C2222.78 542.758 2228.4 541.254 2234.7 541.254C2240.98 541.254 2246.57 542.758 2251.5 545.764C2256.45 548.747 2260.34 553.032 2263.18 558.62C2266.02 564.183 2267.44 570.847 2267.44 578.612ZM2256.58 578.612C2256.58 572.694 2255.62 567.71 2253.7 563.662C2251.81 559.59 2249.2 556.513 2245.89 554.429C2242.6 552.322 2238.87 551.269 2234.7 551.269C2230.51 551.269 2226.77 552.322 2223.48 554.429C2220.19 556.513 2217.59 559.59 2215.67 563.662C2213.77 567.71 2212.83 572.694 2212.83 578.612C2212.83 584.531 2213.77 589.526 2215.67 593.598C2217.59 597.647 2220.19 600.724 2223.48 602.831C2226.77 604.915 2230.51 605.956 2234.7 605.956C2238.87 605.956 2242.6 604.915 2245.89 602.831C2249.2 600.724 2251.81 597.647 2253.7 593.598C2255.62 589.526 2256.58 584.531 2256.58 578.612ZM2274.41 551.695V542.249H2330.7V551.695H2308.01V614.976H2297.07V551.695H2274.41ZM2343.14 614.976V542.249H2388.73V551.695H2354.11V573.854H2386.35V583.264H2354.11V605.53H2389.16V614.976H2343.14ZM2361.53 534.969L2369.84 518.598H2381.03L2370.02 534.969H2361.53ZM2452.61 565.225C2451.92 563.07 2451 561.141 2449.84 559.436C2448.7 557.708 2447.34 556.24 2445.75 555.033C2444.17 553.802 2442.36 552.867 2440.32 552.227C2438.31 551.588 2436.1 551.269 2433.68 551.269C2429.59 551.269 2425.89 552.322 2422.6 554.429C2419.31 556.536 2416.71 559.626 2414.79 563.698C2412.89 567.746 2411.95 572.706 2411.95 578.577C2411.95 584.472 2412.91 589.455 2414.82 593.527C2416.74 597.599 2419.37 600.689 2422.71 602.796C2426.05 604.903 2429.85 605.956 2434.11 605.956C2438.06 605.956 2441.51 605.151 2444.44 603.541C2447.4 601.932 2449.68 599.659 2451.29 596.723C2452.93 593.764 2453.74 590.284 2453.74 586.283L2456.59 586.816H2435.78V577.76H2464.36V586.034C2464.36 592.142 2463.06 597.445 2460.46 601.943C2457.88 606.418 2454.3 609.874 2449.73 612.313C2445.19 614.751 2439.98 615.97 2434.11 615.97C2427.53 615.97 2421.75 614.455 2416.78 611.425C2411.83 608.395 2407.97 604.098 2405.2 598.534C2402.43 592.947 2401.05 586.318 2401.05 578.648C2401.05 572.848 2401.85 567.639 2403.46 563.023C2405.07 558.406 2407.33 554.488 2410.24 551.269C2413.18 548.025 2416.62 545.551 2420.58 543.847C2424.55 542.119 2428.9 541.254 2433.61 541.254C2437.54 541.254 2441.2 541.834 2444.58 542.995C2447.99 544.155 2451.02 545.8 2453.67 547.931C2456.35 550.061 2458.56 552.594 2460.31 555.53C2462.07 558.442 2463.25 561.674 2463.87 565.225H2452.61ZM2478.29 614.976V542.249H2523.89V551.695H2489.26V573.854H2521.51V583.264H2489.26V605.53H2524.31V614.976H2478.29ZM2496.69 534.969L2505 518.598H2516.18L2505.17 534.969H2496.69Z" fill="#D2D3D5"/>
</svg>
