<svg width="618" height="745" viewBox="0 0 618 745" fill="none" xmlns="http://www.w3.org/2000/svg">
<path d="M304.204 0.269157C305.786 0.132157 307.372 0.0461628 308.96 0.0091628C332.039 -0.456837 353.77 16.9552 373.21 28.6632L450.483 75.2352L549.174 134.513C554.028 137.454 559.234 140.624 563.983 143.495C595.603 162.615 618.257 171.803 617.558 213.659C617.2 235.076 617.247 259.479 617.2 281.367L617.125 427.82L617.352 498.163C617.545 541.243 620.425 564.22 577.591 586.987C567.092 592.568 551.599 603.141 541.046 609.695L420.681 684.702C404.264 694.84 387.915 705.086 371.634 715.441C352.113 727.947 328.222 746.811 304.64 744.484C284.841 742.53 256.655 721.733 239.4 711.096L165.789 666.086C152.865 658.134 92.5444 621.902 85.8574 615.212C86.4284 579.684 86.0554 543.919 86.8804 508.471C94.0424 513.756 107.482 521.088 115.49 525.964L177.856 563.945L264.685 617.38C277.413 625.16 296.691 637.824 309.452 644.185C321.45 637.748 342.321 623.993 354.458 616.397L439.365 563.028L493.818 528.982C503.309 523.046 518.271 514.156 526.58 507.315C527.858 475.524 526.659 436.13 526.641 403.688L526.82 230.631L381.275 142.001C360.949 129.84 328.244 111.555 310.271 98.5802C251.191 133.732 192.287 169.18 133.564 204.924C119.406 213.57 103.431 222.047 89.9044 230.667C90.6854 254.65 87.6514 310.144 91.6154 330.179C93.4584 339.914 97.2844 349.167 102.854 357.362C121.581 384.889 155.867 398.214 188.221 387.715C199.338 383.338 211.294 376.833 221.223 370.255C250.737 350.701 285.035 334.208 313.635 313.898C298.472 306.065 281.511 295.437 266.747 286.551C255.192 279.597 232.908 267.097 223.06 258.606C227.716 255.982 232.811 252.852 237.304 249.953C261.285 234.482 287.294 221.463 311.104 205.836C322 213.62 338.325 222.601 350.149 229.726C380.888 248.249 411.702 265.34 442.193 284.364C443.28 301.985 442.636 324.866 442.625 342.873L442.417 445.42C437.364 449.072 432.062 452.719 426.712 455.905C402.623 470.253 378.757 486.913 354.215 500.307L354.212 435.617C354.199 423.704 353.53 408.234 354.96 396.837C331.938 411.753 305.43 426.584 281.899 441.058C266.097 450.777 242.548 465.992 226.318 472.982C213.573 478.525 200.107 482.237 186.322 484.008C144.659 489.93 102.358 478.936 68.8504 453.478C7.29743 406.753 -3.05957 346.684 0.763431 273.346C2.24143 244.994 -6.17257 197.041 11.2414 174.738C14.9034 169.975 19.2984 165.823 24.2634 162.44C35.6804 154.55 53.3944 144.551 65.6044 137.192L150.227 86.4352C180.378 67.9422 210.711 49.7452 241.22 31.8492C256.368 22.8172 271.666 13.2582 287.061 4.68716C292.605 1.60216 297.945 1.05516 304.204 0.269157Z" fill="#3B82F6"/>
</svg>
